<?xml version="1.0" encoding="utf-8"?>
<!-- Generator: Adobe Illustrator 26.2.1, SVG Export Plug-In . SVG Version: 6.00 Build 0)  -->
<svg version="1.1" xmlns="http://www.w3.org/2000/svg" xmlns:xlink="http://www.w3.org/1999/xlink" x="0px" y="0px"
	 viewBox="0 0 128.9 41.2" enable-background="new 0 0 128.9 41.2" xml:space="preserve">
<g id="bg_00000065787940371766393870000004238595996420602026_">
</g>
<g id="pic">
</g>
<g id="icon">
	<g>
		<path fill="#FFFFFF" d="M0,40.6L15,9.1h0.3l15.1,31.5h-6.9l-2.5-5.5H9.4l-2.4,5.5H0z M11.4,30.4H19c-1.7-3.9-2.9-7-3.7-9.2
			c-0.1,0.1-0.6,1.4-1.6,3.9C12.6,27.5,11.9,29.3,11.4,30.4z"/>
		<path fill="#00A6FF" d="M37.2,3.5c0-1.1,0.3-1.9,1-2.5C38.8,0.3,39.6,0,40.7,0c1.1,0,2,0.3,2.6,0.9c0.6,0.6,1,1.5,1,2.5
			c0,1-0.3,1.9-1,2.5c-0.7,0.6-1.5,0.9-2.6,0.9c-1.1,0-2-0.3-2.6-0.9C37.5,5.4,37.2,4.5,37.2,3.5z"/>
		<path fill="#FFFFFF" d="M54.2,34.4V9.5h6.4V33c0,1.8,0.7,2.7,2.2,2.7c0.8,0,1.5-0.1,2.2-0.4v5.3c-0.9,0.4-2.3,0.6-4.1,0.6
			c-2,0-3.6-0.5-4.8-1.6C54.8,38.4,54.2,36.7,54.2,34.4z"/>
		<path fill="#00A6FF" d="M72.7,12.9c0-1.1,0.3-1.9,1-2.5c0.6-0.6,1.5-0.9,2.6-0.9s2,0.3,2.6,0.9c0.6,0.6,1,1.5,1,2.5
			c0,1-0.3,1.9-1,2.5c-0.7,0.6-1.5,0.9-2.6,0.9c-1.1,0-2-0.3-2.6-0.9C73,14.7,72.7,13.9,72.7,12.9z"/>
		<rect x="73" y="19" fill="#FFFFFF" width="6.5" height="21.6"/>
		<path fill="#FFFFFF" d="M87.7,19h3.1v-1.9c0-2.5,0.8-4.5,2.3-5.9c1.6-1.5,3.7-2.2,6.6-2.2c1.1,0,2.1,0.1,2.8,0.3v5.5
			c-0.5-0.2-1.3-0.3-2.2-0.3c-1.1,0-2,0.3-2.7,0.9c-0.6,0.6-1,1.5-1,2.5V19h5v5h-4.8v16.5h-6.4V24.1h-2.8V19z"/>
		<path fill="#FFFFFF" d="M118.9,18.4c3.2,0,5.6,1,7.4,2.9c1.8,1.9,2.7,4.3,2.7,7.2c0,0.6-0.1,1.5-0.2,2.6h-14.1
			c0.1,1.5,0.7,2.6,1.8,3.4c1.1,0.8,2.5,1.2,4.2,1.2c1.4,0,2.8-0.2,4.3-0.5c1.4-0.3,2.5-0.7,3.2-1.1v5.5c-2,1-4.7,1.6-8.1,1.6
			c-3.6,0-6.6-1.1-8.8-3.2s-3.3-4.9-3.3-8.2c0-3.2,1-6,3.1-8.1C113.2,19.5,115.8,18.4,118.9,18.4z M122.7,27.8
			c0.1-1.2-0.3-2.2-1-3.1c-0.7-0.8-1.7-1.3-3-1.3c-1.2,0-2.2,0.4-3,1.2c-0.7,0.8-1.2,1.8-1.3,3.1H122.7z"/>
		<path fill="#FFFFFF" d="M37.2,34.4V9.5h6.4V33c0,1.8,0.7,2.7,2.2,2.7c0.8,0,1.5-0.1,2.2-0.4v5.3c-0.9,0.4-2.3,0.6-4.1,0.6
			c-2,0-3.6-0.5-4.8-1.6C37.8,38.4,37.2,36.7,37.2,34.4z"/>
	</g>
</g>
</svg>
