<?xml version="1.0" encoding="utf-8"?>
<!-- Generator: Adobe Illustrator 24.0.3, SVG Export Plug-In . SVG Version: 6.00 Build 0)  -->
<svg version="1.1" id="圖層_1" xmlns="http://www.w3.org/2000/svg" xmlns:xlink="http://www.w3.org/1999/xlink" x="0px" y="0px"
	 viewBox="0 0 20 19.1" style="enable-background:new 0 0 20 19.1;" xml:space="preserve">
<style type="text/css">
	.st0{fill:#FFFFFF;}
</style>
<title>ai_1920x108v2</title>
<g>
	<g>
		<path class="st0" d="M0,8.4c0,3,1.9,5.6,4.6,7.1c2.8,1.8,6.5,3.1,8,3.6c0.2,0.1,0.5-0.2,0.3-0.4c-0.2-0.5-0.6-1.2-1-2.1
			c4.6-0.8,8.1-4.1,8.1-8.2C20,3.7,15.5,0,10,0C4.5,0,0,3.7,0,8.4z M13.2,8.7c0-0.6,0.5-1.1,1.1-1.1c0.6,0,1.1,0.5,1.1,1.1
			c0,0.6-0.5,1.1-1.1,1.1C13.7,9.8,13.2,9.3,13.2,8.7z M8.9,8.7C8.9,8,9.4,7.5,10,7.5c0.6,0,1.1,0.5,1.1,1.1c0,0.6-0.5,1.1-1.1,1.1
			C9.4,9.8,8.9,9.3,8.9,8.7z M4.5,8.7C4.5,8,5,7.5,5.6,7.5c0.6,0,1.1,0.5,1.1,1.1c0,0.6-0.5,1.1-1.1,1.1C5,9.8,4.5,9.3,4.5,8.7z"/>
	</g>
</g>
</svg>
