<?xml version="1.0" encoding="utf-8"?>
<!-- Generator: Adobe Illustrator 26.2.1, SVG Export Plug-In . SVG Version: 6.00 Build 0)  -->
<svg version="1.1" xmlns="http://www.w3.org/2000/svg" xmlns:xlink="http://www.w3.org/1999/xlink" x="0px" y="0px"
	 viewBox="0 0 26.4 23.9" enable-background="new 0 0 26.4 23.9" xml:space="preserve">
<g id="bg_00000065787940371766393870000004238595996420602026_">
</g>
<g id="pic">
</g>
<g id="icon">
	<g>
		<path fill="#FFFFFF" d="M18,23.9H8.5c-1.3,0-2.6-0.7-3.3-1.9l-4.7-8.2c-0.7-1.2-0.7-2.6,0-3.8l4.7-8.2C5.9,0.7,7.2,0,8.5,0H18
			c1.3,0,2.6,0.7,3.3,1.9l4.7,8.2c0.7,1.2,0.7,2.6,0,3.8L21.2,22C20.5,23.2,19.3,23.9,18,23.9z M8.5,0.6c-1.1,0-2.1,0.6-2.7,1.6
			l-4.7,8.2c-0.6,1-0.6,2.2,0,3.1l4.7,8.2c0.6,1,1.6,1.6,2.7,1.6H18c1.1,0,2.1-0.6,2.7-1.6l4.7-8.2c0.6-1,0.6-2.2,0-3.1l-4.7-8.2
			c-0.6-1-1.6-1.6-2.7-1.6H8.5z"/>
		<g>
			<path fill="#FFFFFF" d="M11.8,12.7l-0.4-5.3c-0.1-1-0.1-1.8-0.1-2.2c0-0.6,0.2-1.1,0.5-1.4c0.3-0.3,0.7-0.5,1.3-0.5
				c0.6,0,1.1,0.2,1.3,0.7c0.2,0.4,0.3,1.1,0.3,1.9c0,0.5,0,1-0.1,1.5l-0.5,5.5c-0.1,0.6-0.2,1.1-0.3,1.5c-0.2,0.3-0.5,0.5-0.8,0.5
				c-0.4,0-0.7-0.2-0.8-0.5C12,13.9,11.9,13.4,11.8,12.7z M13.1,20c-0.5,0-0.8-0.1-1.2-0.4c-0.3-0.3-0.5-0.7-0.5-1.2
				c0-0.5,0.2-0.8,0.5-1.2c0.3-0.3,0.7-0.5,1.2-0.5s0.9,0.2,1.2,0.5c0.3,0.3,0.5,0.7,0.5,1.2c0,0.5-0.2,0.9-0.5,1.2
				C13.9,19.9,13.5,20,13.1,20z"/>
		</g>
	</g>
</g>
</svg>
