<?xml version="1.0" encoding="utf-8"?>
<!-- Generator: Adobe Illustrator 26.2.1, SVG Export Plug-In . SVG Version: 6.00 Build 0)  -->
<svg version="1.1" id="圖層_1" xmlns="http://www.w3.org/2000/svg" xmlns:xlink="http://www.w3.org/1999/xlink" x="0px" y="0px"
	 viewBox="0 0 26.1 30" style="enable-background:new 0 0 26.1 30;" xml:space="preserve">
<g id="bg_00000065787940371766393870000004238595996420602026_">
</g>
<g id="pic">
</g>
<g id="icon">
	<g>
		<path d="M14.2,27.6H5.4c-1.7,0-3-1.3-3-3V5.4c0-1.7,1.3-3,3-3h8.8c0.7,0,1.2-0.5,1.2-1.2S14.9,0,14.2,0H5.4C2.4,0,0,2.4,0,5.4
			v19.2c0,3,2.4,5.4,5.4,5.4h8.8c0.7,0,1.2-0.5,1.2-1.2S14.9,27.6,14.2,27.6z"/>
		<path d="M26.1,15L26.1,15L26.1,15c0-0.3-0.1-0.6-0.4-0.9L20,8.4c-0.5-0.5-1.2-0.5-1.7,0c-0.2,0.2-0.4,0.5-0.4,0.8S18,9.8,18.3,10
			l3.7,3.7H9.9c-0.7,0-1.2,0.5-1.2,1.2s0.5,1.2,1.2,1.2h12l-3.6,3.6c-0.2,0.2-0.4,0.5-0.4,0.8s0.1,0.6,0.4,0.8
			c0.2,0.2,0.5,0.4,0.8,0.4s0.6-0.1,0.8-0.4l5.7-5.7l0,0l0,0l0,0l0,0l0,0l0,0l0,0l0,0l0,0l0,0l0,0l0,0l0,0l0,0l0,0l0,0l0,0l0,0l0,0
			l0,0l0,0l0,0l0,0l0,0l0,0l0,0l0,0l0,0l0,0l0,0l0,0l0,0l0,0l0,0l0,0l0,0l0,0l0,0L26.1,15C26.1,15.1,26.1,15.1,26.1,15
			C26.1,15.1,26.1,15,26.1,15L26.1,15L26.1,15z"/>
	</g>
</g>
</svg>
