<?xml version="1.0" encoding="utf-8"?>
<!-- Generator: Adobe Illustrator 26.2.1, SVG Export Plug-In . SVG Version: 6.00 Build 0)  -->
<svg version="1.1" xmlns="http://www.w3.org/2000/svg" xmlns:xlink="http://www.w3.org/1999/xlink" x="0px" y="0px"
	 viewBox="0 0 23.9 23.9" enable-background="new 0 0 23.9 23.9" xml:space="preserve">
<g id="bg_00000065787940371766393870000004238595996420602026_">
</g>
<g id="pic">
</g>
<g id="icon">
	<g>
		<g>
			<path fill="#FFFFFF" d="M22.8,0l-3,0.5c-3,0.4-5.6,1.8-7.5,3.8L9,8L4.4,7.7C4.2,7.7,4,7.8,3.8,8l-2.3,3.4c-0.2,0.4-0.1,0.8,0.3,1
				L5,13.9l4.9,4.9l1.5,3.2c0.2,0.4,0.7,0.5,1,0.3l3.5-2.3c0.2-0.1,0.3-0.4,0.3-0.6l-0.3-4.5l3.6-3.3c2.1-1.9,3.4-4.5,3.8-7.5l0.5-3
				C24,0.5,23.4-0.1,22.8,0z M17.3,9.6c-0.8,0.8-2.1,0.8-2.9,0c-0.8-0.8-0.8-2.1,0-2.9c0.8-0.8,2.1-0.8,2.9,0
				C18.1,7.4,18.1,8.7,17.3,9.6z"/>
			<path fill="#FFFFFF" d="M8.2,19.5l-3.8-3.8c-0.1-0.1-0.3-0.1-0.4,0c-0.2,0.2-0.5,0.5-0.6,0.6C0.1,19.6,0,23.9,0,23.9
				s4.3-0.1,7.7-3.5c0.1-0.1,0.4-0.4,0.6-0.6C8.3,19.8,8.3,19.6,8.2,19.5z"/>
		</g>
	</g>
</g>
</svg>
