<?xml version="1.0" encoding="utf-8"?>
<!-- Generator: Adobe Illustrator 26.2.1, SVG Export Plug-In . SVG Version: 6.00 Build 0)  -->
<svg version="1.1" xmlns="http://www.w3.org/2000/svg" xmlns:xlink="http://www.w3.org/1999/xlink" x="0px" y="0px"
	 viewBox="0 0 15.7 23.9" enable-background="new 0 0 15.7 23.9" xml:space="preserve">
<g id="bg_00000065787940371766393870000004238595996420602026_">
</g>
<g id="pic">
</g>
<g id="icon">
	<g>
		<g>
			<path fill="#FFFFFF" d="M10.8,19.7H4.9c-0.6,0-1,0.4-1,1v0.1c0,0.6,0.4,1,1,1h1v0.2c0,1,0.8,1.8,1.8,1.8H8c1,0,1.8-0.8,1.8-1.8
				v-0.2h1c0.6,0,1-0.4,1-1v-0.1C11.8,20.1,11.4,19.7,10.8,19.7z"/>
			<path fill="#FFFFFF" d="M7,0.1C3.6,0.4,0.4,3.6,0.1,6.9c-0.3,2.5,0.6,4.8,2.2,6.4c0.9,0.9,1.4,2.2,1.4,3.5v0
				c0,0.7,0.5,1.2,1.2,1.2h6.1c0.7,0,1.2-0.5,1.2-1.2c0-1.3,0.5-2.6,1.4-3.5c1.4-1.4,2.2-3.4,2.2-5.5C15.7,3.2,11.7-0.5,7,0.1z
				 M7.1,15c0,0.4-0.3,0.8-0.8,0.8c-0.4,0-0.8-0.3-0.8-0.8v-3.3c0-1-0.8-1.9-1.9-1.9C3.3,9.8,2.9,9.5,2.9,9s0.3-0.8,0.8-0.8
				c1.9,0,3.4,1.5,3.4,3.4V15z M12.1,9.8c-1,0-1.9,0.8-1.9,1.9V15c0,0.4-0.3,0.8-0.8,0.8c-0.4,0-0.8-0.3-0.8-0.8v-3.3
				c0-1.9,1.5-3.4,3.4-3.4c0.4,0,0.8,0.3,0.8,0.8S12.5,9.8,12.1,9.8z"/>
		</g>
	</g>
</g>
</svg>
