<svg xmlns="http://www.w3.org/2000/svg" viewBox="0 0 128.9 41.2"><defs><style>.a{fill:#fff;}</style></defs><title>loading_logoTxt</title><path class="a" d="M0,40.6,15,9.1h.3L30.4,40.6H23.5L21,35.1H9.4L7,40.6ZM11.4,30.4H19c-1.7-3.9-2.9-7-3.7-9.2-.1.1-.6,1.4-1.6,3.9S11.9,29.3,11.4,30.4Z"/><path class="a" d="M54.2,34.4V9.5h6.4V33c0,1.8.7,2.7,2.2,2.7a5.4,5.4,0,0,0,2.2-.4v5.3a10.7,10.7,0,0,1-4.1.6,6.8,6.8,0,0,1-4.8-1.6A6.7,6.7,0,0,1,54.2,34.4Z"/><rect class="a" x="73" y="19" width="6.5" height="21.6"/><path class="a" d="M87.7,19h3.1V17.1a7.8,7.8,0,0,1,2.3-5.9C94.7,9.7,96.8,9,99.7,9a10.9,10.9,0,0,1,2.8.3v5.5a6.5,6.5,0,0,0-2.2-.3,4,4,0,0,0-2.7.9,3.6,3.6,0,0,0-1,2.5V19h5v5H96.8V40.5H90.4V24.1H87.6V19Z"/><path class="a" d="M118.9,18.4a9.6,9.6,0,0,1,7.4,2.9,10.1,10.1,0,0,1,2.7,7.2c0,.6-.1,1.5-.2,2.6H114.7a4.3,4.3,0,0,0,1.8,3.4,7,7,0,0,0,4.2,1.2,21.8,21.8,0,0,0,4.3-.5,11.7,11.7,0,0,0,3.2-1.1v5.5a18.2,18.2,0,0,1-8.1,1.6,12.4,12.4,0,0,1-8.8-3.2,10.9,10.9,0,0,1-3.3-8.2,11.1,11.1,0,0,1,3.1-8.1A10.4,10.4,0,0,1,118.9,18.4Zm3.8,9.4a4.3,4.3,0,0,0-1-3.1,3.8,3.8,0,0,0-3-1.3,4.1,4.1,0,0,0-3,1.2,5.2,5.2,0,0,0-1.3,3.1h8.3Z"/><path class="a" d="M37.2,34.4V9.5h6.4V33c0,1.8.7,2.7,2.2,2.7a5.4,5.4,0,0,0,2.2-.4v5.3a10.7,10.7,0,0,1-4.1.6,6.8,6.8,0,0,1-4.8-1.6A6.7,6.7,0,0,1,37.2,34.4Z"/></svg>